<?xml version="1.0" encoding="UTF-8"?>
<svg id="start" xmlns="http://www.w3.org/2000/svg" xmlns:xlink="http://www.w3.org/1999/xlink" viewBox="0 0 500 120">
  <defs>
    <style>
      .cls-1 {
        stroke-miterlimit: 10;
      }

      .cls-1, .cls-2 {
        fill: #fff;
        stroke: #383945;
        stroke-width: 2.02px;
      }

      .cls-3 {
        fill: #007099;
      }

      .cls-4 {
        fill: url(#Degradado_sin_nombre_60);
        opacity: .8;
      }

      .cls-2 {
        stroke-linecap: round;
        stroke-linejoin: round;
      }
    </style>
    <linearGradient id="Degradado_sin_nombre_60" data-name="Degradado sin nombre 60" x1="0" y1="60.06" x2="500" y2="60.06" gradientUnits="userSpaceOnUse">
      <stop offset="0" stop-color="#efefef" stop-opacity=".8"/>
      <stop offset=".11" stop-color="#efefef" stop-opacity=".77"/>
      <stop offset=".26" stop-color="#f0f0f0" stop-opacity=".7"/>
      <stop offset=".44" stop-color="#f3f3f3" stop-opacity=".58"/>
      <stop offset=".63" stop-color="#f6f6f6" stop-opacity=".41"/>
      <stop offset=".83" stop-color="#fbfbfb" stop-opacity=".2"/>
      <stop offset="1" stop-color="#fff" stop-opacity="0"/>
    </linearGradient>
  </defs>
  <rect class="cls-4" y=".12" width="500" height="119.88"/>
  <g>
    <g>
      <g>
        <line class="cls-2" x1="94.37" y1="32.06" x2="99.58" y2="26.54"/>
        <line class="cls-2" x1="86.42" y1="30.48" x2="84.25" y2="23.21"/>
        <line class="cls-2" x1="103.75" y1="40.48" x2="96.67" y2="38.79"/>
      </g>
      <path class="cls-1" d="M104.15,66.94c0,8.06-6.54,14.6-14.6,14.6h-56.35c-9.6,0-17.39-7.79-17.39-17.39s7.41-17,16.68-17.37c1.78-8.78,9.53-15.4,18.84-15.4,6.21,0,11.73,2.94,15.24,7.5,2.25-.94,4.71-1.46,7.3-1.46,9.18,0,16.83,6.53,18.57,15.2,6.68,1.34,11.71,7.24,11.71,14.31Z"/>
      <path class="cls-3" d="M59.98,56.47c-7.17,0-13.01,5.83-13.01,13.01s11.82,22.42,12.32,23.08c.16.22.42.34.69.34s.52-.12.69-.34c.5-.66,12.32-16.16,12.32-23.08s-5.83-13.01-13.01-13.01ZM59.98,75.55c-3.35,0-6.07-2.72-6.07-6.07s2.72-6.07,6.07-6.07,6.07,2.72,6.07,6.07-2.72,6.07-6.07,6.07Z"/>
    </g>
    <ellipse class="cls-3" cx="59.98" cy="96.4" rx="5.02" ry="1.93"/>
  </g>
</svg>